<svg xmlns="http://www.w3.org/2000/svg" fill="none" viewBox="-0.5 -0.5 16 16" height="16" width="16" id="Target-3--Streamline-Plump.svg"><desc>Target 3 Streamline Icon: https://streamlinehq.com</desc><g id="target-3--shop-bullseye-shooting-target"><path id="Ellipse 21" stroke="#000000" stroke-linecap="round" stroke-linejoin="round" d="M7.5 0.9375c3.624375 0 6.5625 2.938125 6.5625 6.5625s-2.938125 6.5625 -6.5625 6.5625S0.9375 11.124375 0.9375 7.5 3.875625 0.937496875 7.5 0.9375Z" stroke-width="1"></path><path id="Ellipse 19" stroke="#000000" stroke-linecap="round" stroke-linejoin="round" d="M2.8125 7.5c0 -2.58884375 2.09865625 -4.6875 4.6875 -4.6875s4.6875 2.09865625 4.6875 4.6875 -2.09865625 4.6875 -4.6875 4.6875S2.8125 10.08884375 2.8125 7.5Z" stroke-width="1"></path><path id="Vector 1585" stroke="#000000" stroke-linecap="round" stroke-linejoin="round" d="M7.5 2.8125v1.25" stroke-width="1"></path><path id="Vector 1587" stroke="#000000" stroke-linecap="round" stroke-linejoin="round" d="m12.1875 7.5 -1.25 0" stroke-width="1"></path><path id="Vector 1586" stroke="#000000" stroke-linecap="round" stroke-linejoin="round" d="M7.5 12.1875v-1.25" stroke-width="1"></path><path id="Vector 1588" stroke="#000000" stroke-linecap="round" stroke-linejoin="round" d="m2.8125 7.5 1.25 0" stroke-width="1"></path><path id="Vector 1589" stroke="#000000" stroke-linecap="round" stroke-linejoin="round" d="m6.5625 7.5 1.875 0" stroke-width="1"></path><path id="Vector 1590" stroke="#000000" stroke-linecap="round" stroke-linejoin="round" d="m7.5 6.5625 0 1.875" stroke-width="1"></path></g></svg>